M48
; DRILL file {KiCad 9.0.4} date 2026-05-27T07:17:47+0200
; FORMAT={-:-/ absolute / metric / decimal}
; #@! TF.CreationDate,2026-05-27T07:17:47+02:00
; #@! TF.GenerationSoftware,Kicad,Pcbnew,9.0.4
; #@! TF.FileFunction,Plated,1,2,PTH
FMAT,2
METRIC
; #@! TA.AperFunction,Plated,PTH,ViaDrill
T1C0.400
; #@! TA.AperFunction,Plated,PTH,ComponentDrill
T2C0.600
; #@! TA.AperFunction,Plated,PTH,ComponentDrill
T3C0.800
; #@! TA.AperFunction,Plated,PTH,ComponentDrill
T4C0.850
; #@! TA.AperFunction,Plated,PTH,ComponentDrill
T5C0.950
; #@! TA.AperFunction,Plated,PTH,ComponentDrill
T6C1.000
; #@! TA.AperFunction,Plated,PTH,ComponentDrill
T7C1.100
; #@! TA.AperFunction,Plated,PTH,ComponentDrill
T8C1.500
; #@! TA.AperFunction,Plated,PTH,ComponentDrill
T9C1.700
; #@! TA.AperFunction,Plated,PTH,ComponentDrill
T10C3.200
%
G90
G05
T1
X78.8Y-79.75
X108.983Y-81.142
X124.825Y-81.142
X141.233Y-81.142
X157.658Y-81.142
X174.083Y-81.142
X190.483Y-81.142
X201.8Y-62.775
X216.576Y-80.17
X216.576Y-82.225
X217.725Y-80.17
X217.725Y-82.17
T2
X201.6Y-74.63
X201.6Y-76.63
T3
X58.97Y-71.125
X68.35Y-75.962
X68.35Y-83.582
X69.13Y-71.125
X69.6Y-53.3
X70.9Y-61.325
X73.4Y-61.325
X74.6Y-53.3
X75.905Y-72.6
X78.445Y-72.6
X80.985Y-72.6
X81.375Y-61.325
X83.875Y-61.325
X85.145Y-71.125
X85.145Y-79.375
X85.145Y-83.5
X85.19Y-75.25
X89.975Y-53.3
X91.075Y-61.325
X93.575Y-61.325
X94.975Y-53.3
X95.305Y-71.125
X95.305Y-79.375
X95.305Y-83.5
X95.35Y-75.25
X103.422Y-52.567
X103.422Y-61.421
X103.422Y-74.302
X103.58Y-86.38
X103.58Y-94.0
X105.85Y-98.92
X106.002Y-56.994
X106.002Y-65.848
X106.002Y-69.875
X111.002Y-56.994
X111.002Y-65.848
X111.002Y-69.875
X113.47Y-98.92
X113.582Y-52.567
X113.582Y-61.421
X113.582Y-74.302
X119.842Y-52.567
X119.842Y-61.421
X119.842Y-74.302
X120.0Y-86.38
X120.0Y-94.0
X122.27Y-98.92
X122.344Y-48.077
X122.394Y-78.927
X122.422Y-56.994
X122.422Y-65.848
X122.422Y-69.875
X127.344Y-48.077
X127.394Y-78.927
X127.422Y-56.994
X127.422Y-65.848
X127.422Y-69.875
X129.89Y-98.92
X130.002Y-52.567
X130.002Y-61.421
X130.002Y-74.302
X136.262Y-52.567
X136.262Y-61.421
X136.262Y-74.302
X136.42Y-86.38
X136.42Y-94.0
X138.69Y-98.92
X138.842Y-56.994
X138.842Y-65.848
X138.842Y-69.875
X143.842Y-56.994
X143.842Y-65.848
X143.842Y-69.875
X146.31Y-98.92
X146.422Y-52.567
X146.422Y-61.421
X146.422Y-74.302
X152.682Y-52.562
X152.682Y-61.416
X152.682Y-74.297
X152.84Y-86.375
X152.84Y-93.995
X155.11Y-98.92
X155.262Y-56.989
X155.262Y-65.843
X155.262Y-69.87
X155.274Y-78.83
X160.262Y-56.989
X160.262Y-65.843
X160.262Y-69.87
X160.274Y-78.83
X162.73Y-98.92
X162.842Y-52.562
X162.842Y-61.416
X162.842Y-74.297
X169.102Y-52.567
X169.102Y-61.421
X169.102Y-74.302
X169.26Y-86.38
X169.26Y-94.0
X171.53Y-98.92
X171.682Y-56.994
X171.682Y-65.848
X171.682Y-69.875
X176.682Y-56.994
X176.682Y-65.848
X176.682Y-69.875
X179.15Y-98.92
X179.262Y-52.567
X179.262Y-61.421
X179.262Y-74.302
X185.522Y-52.567
X185.522Y-61.421
X185.522Y-74.302
X185.68Y-86.38
X185.68Y-94.0
X187.95Y-98.92
X188.102Y-56.994
X188.102Y-65.848
X188.102Y-69.875
X193.102Y-56.994
X193.102Y-65.848
X193.102Y-69.875
X195.57Y-98.92
X195.682Y-52.567
X195.682Y-61.421
X195.682Y-74.302
X205.325Y-51.7
X205.325Y-54.24
X205.325Y-56.78
X205.325Y-59.32
X205.325Y-61.86
X205.325Y-64.4
X205.325Y-66.94
X205.325Y-69.48
X205.425Y-81.17
X205.425Y-83.71
X205.425Y-86.25
X205.425Y-88.79
X205.425Y-91.33
X205.425Y-93.87
X205.425Y-96.41
X205.425Y-98.95
X206.575Y-47.25
X206.584Y-75.658
X211.575Y-47.25
X211.584Y-75.658
X212.945Y-51.7
X212.945Y-54.24
X212.945Y-56.78
X212.945Y-59.32
X212.945Y-61.86
X212.945Y-64.4
X212.945Y-66.94
X212.945Y-69.48
X213.045Y-81.17
X213.045Y-83.71
X213.045Y-86.25
X213.045Y-88.79
X213.045Y-91.33
X213.045Y-93.87
X213.045Y-96.41
X213.045Y-98.95
T4
X72.542Y-77.215
X72.542Y-82.295
X75.542Y-77.215
X75.542Y-82.295
X77.942Y-77.215
X77.942Y-82.295
X80.142Y-77.215
X80.142Y-82.295
X108.417Y-86.412
X108.417Y-88.612
X108.417Y-91.012
X108.417Y-94.012
X113.497Y-86.412
X113.497Y-88.612
X113.497Y-91.012
X113.497Y-94.012
X124.837Y-86.412
X124.837Y-88.612
X124.837Y-91.012
X124.837Y-94.012
X129.917Y-86.412
X129.917Y-88.612
X129.917Y-91.012
X129.917Y-94.012
X141.257Y-86.412
X141.257Y-88.612
X141.257Y-91.012
X141.257Y-94.012
X146.337Y-86.412
X146.337Y-88.612
X146.337Y-91.012
X146.337Y-94.012
X157.677Y-86.407
X157.677Y-88.607
X157.677Y-91.007
X157.677Y-94.007
X162.757Y-86.407
X162.757Y-88.607
X162.757Y-91.007
X162.757Y-94.007
X174.097Y-86.412
X174.097Y-88.612
X174.097Y-91.012
X174.097Y-94.012
X179.177Y-86.412
X179.177Y-88.612
X179.177Y-91.012
X179.177Y-94.012
X190.517Y-86.412
X190.517Y-88.612
X190.517Y-91.012
X190.517Y-94.012
X195.597Y-86.412
X195.597Y-88.612
X195.597Y-91.012
X195.597Y-94.012
T5
X221.725Y-60.55
X221.725Y-63.05
X221.725Y-65.55
X221.725Y-68.05
X221.825Y-82.6
X221.825Y-85.1
X221.825Y-87.6
X221.825Y-90.1
T6
X60.475Y-78.65
X60.475Y-81.15
X60.65Y-59.95
X60.65Y-62.45
T7
X69.624Y-49.15
X72.164Y-49.15
X74.704Y-49.15
X89.999Y-49.15
X92.539Y-49.15
X95.079Y-49.15
T8
X72.23Y-98.826
X90.23Y-98.8
T9
X69.69Y-96.286
X69.69Y-101.366
X74.77Y-96.286
X74.77Y-101.366
X87.69Y-96.26
X87.69Y-101.34
X92.77Y-96.26
X92.77Y-101.34
T10
X57.94Y-48.0
X57.94Y-101.75
X223.86Y-48.0
X223.86Y-101.75
M30
